<?xml version="1.0" standalone="no"?>
<!DOCTYPE svg PUBLIC "-//W3C//DTD SVG 20010904//EN"
 "http://www.w3.org/TR/2001/REC-SVG-20010904/DTD/svg10.dtd">
<svg version="1.0" xmlns="http://www.w3.org/2000/svg"
 width="1280.000000pt" height="677.000000pt" viewBox="0 0 1280.000000 677.000000"
 preserveAspectRatio="xMidYMid meet">
<g transform="translate(0.000000,677.000000) scale(0.100000,-0.100000)"
fill="#000000" stroke="none">
<path d="M11440 6739 c-47 -16 -123 -48 -170 -71 l-85 -43 -21 -105 c-72 -352
-235 -905 -333 -1129 -99 -227 -371 -555 -852 -1026 -487 -477 -832 -751
-1140 -905 -581 -292 -1280 -446 -2174 -479 -559 -21 -1069 36 -1705 190 -504
122 -706 196 -1400 517 -612 282 -737 330 -1495 572 -170 55 -349 115 -398
134 l-88 34 -119 -100 c-65 -55 -121 -107 -125 -116 -60 -148 -104 -286 -96
-300 5 -9 32 -82 61 -162 89 -248 396 -852 613 -1205 246 -402 441 -623 819
-928 684 -552 1556 -932 2518 -1096 536 -92 1006 -126 1595 -118 473 6 657 25
1085 112 798 161 1473 435 2105 853 680 451 1142 936 1430 1502 185 365 275
682 275 970 0 217 -53 663 -105 895 -22 95 -32 627 -16 815 24 284 69 407 251
684 l91 138 -17 52 c-65 197 -140 279 -296 327 -81 24 -105 23 -208 -12z"/>
</g>
</svg>
